<svg width="16" height="16" viewBox="0 0 16 16" fill="none" xmlns="http://www.w3.org/2000/svg">
<g clip-path="url(#clip0)">
<path d="M15.9998 3.05957H13.1994C13.2074 3.16694 13.2116 3.27537 13.2116 3.38474C13.2116 4.45835 12.8181 5.44171 12.168 6.19855V8.93098H11.2306V7.01729C10.9401 7.20534 10.6256 7.35943 10.293 7.47408V8.93098H9.35554V7.68335C9.20177 7.69997 9.04568 7.70875 8.88757 7.70875C8.72889 7.70875 8.57227 7.69991 8.41796 7.68316V8.93098H7.48051V7.47352C7.14784 7.35871 6.83345 7.20444 6.54293 7.01623V8.93098H5.60548V6.19661C4.95635 5.44002 4.56356 4.45744 4.56356 3.38474C4.56356 3.27537 4.56771 3.16694 4.57575 3.05957H2.82192L2.34389 0H0V0.937455H1.54155L3.58251 14.0002H4.49619C4.43216 14.1648 4.39663 14.3435 4.39663 14.5305C4.39663 15.3398 5.05507 15.9983 5.8644 15.9983C6.67374 15.9983 7.33217 15.3398 7.33217 14.5305C7.33217 14.3435 7.29664 14.1648 7.23262 14.0002H11.1001C11.036 14.1648 11.0005 14.3435 11.0005 14.5305C11.0005 15.3398 11.6589 15.9983 12.4682 15.9983C13.2776 15.9983 13.936 15.3398 13.936 14.5305C13.936 13.7212 13.2776 13.0627 12.4682 13.0627H4.38485L4.13914 11.4901H14.2834L15.9998 3.05957Z" fill="black"/>
<path d="M8.88773 0C7.02039 0 5.50118 1.51918 5.50118 3.38652C5.50118 5.25387 7.02039 6.77308 8.88773 6.77308C10.7551 6.77308 12.2743 5.25387 12.2743 3.38652C12.2743 1.51918 10.7551 0 8.88773 0ZM9.35646 4.89692H8.41901V3.85525H7.37734V2.9178H8.41901V1.87616H9.35646V2.9178H10.3981V3.85525H9.35646V4.89692Z" fill="black"/>
</g>
<defs>
<clipPath id="clip0">
<rect width="16" height="16" fill="white"/>
</clipPath>
</defs>
</svg>
