<svg width="157" height="31" viewBox="0 0 157 31" fill="none" xmlns="http://www.w3.org/2000/svg">
<path d="M16.4857 30H4.85173L0.399727 26.724V23.154H2.66773V25.548L5.60773 27.732H15.6877L18.2497 25.59V18.912L13.5037 15.342L18.2497 11.604V4.884L15.6457 2.742H5.64973L2.66773 4.884V7.32H0.399727V3.792L4.85173 0.515999H16.4857L20.5177 3.834V12.738L17.1997 15.3L20.5177 17.778V26.724L16.4857 30ZM45.2387 30H24.2807V0.599998H45.2387L49.2707 5.892V24.708L45.2387 30ZM47.0027 6.69L44.1047 2.826H26.5067V27.732H44.1047L47.0027 23.91V6.69ZM75.8806 0.893999V6.48H67.1026V30H60.5506V6.48H51.7726V0.893999H75.8806ZM80.0914 30V0.893999H99.7474V6.396H86.6434V12.108H98.2774V17.484H86.6434V24.498H100.713V30H80.0914ZM118.834 30.588C114.102 30.588 110.49 29.272 107.998 26.64C105.534 24.008 104.302 20.27 104.302 15.426C104.302 13.018 104.68 10.876 105.436 9C106.192 7.096 107.228 5.5 108.544 4.212C109.86 2.896 111.428 1.902 113.248 1.23C115.068 0.557998 117.042 0.221998 119.17 0.221998C120.402 0.221998 121.522 0.319998 122.53 0.515999C123.538 0.683999 124.42 0.893998 125.176 1.146C125.932 1.37 126.562 1.608 127.066 1.86C127.57 2.112 127.934 2.308 128.158 2.448L126.268 7.74C125.372 7.264 124.322 6.858 123.118 6.522C121.942 6.186 120.598 6.018 119.086 6.018C118.078 6.018 117.084 6.186 116.104 6.522C115.152 6.858 114.298 7.404 113.542 8.16C112.814 8.888 112.226 9.84 111.778 11.016C111.33 12.192 111.106 13.62 111.106 15.3C111.106 16.644 111.246 17.904 111.526 19.08C111.834 20.228 112.31 21.222 112.954 22.062C113.626 22.902 114.494 23.574 115.558 24.078C116.622 24.554 117.91 24.792 119.422 24.792C120.374 24.792 121.228 24.736 121.984 24.624C122.74 24.512 123.412 24.386 124 24.246C124.588 24.078 125.106 23.896 125.554 23.7C126.002 23.504 126.408 23.322 126.772 23.154L128.578 28.404C127.654 28.964 126.352 29.468 124.672 29.916C122.992 30.364 121.046 30.588 118.834 30.588ZM150.353 0.893999H156.905V30H150.353V17.652H139.349V30H132.797V0.893999H139.349V12.024H150.353V0.893999Z" fill="black"/>
</svg>
