<svg width="60" height="60" viewBox="0 0 60 60" fill="none" xmlns="http://www.w3.org/2000/svg">
<rect width="60" height="60" rx="10" fill="white"/>
<path d="M21.3656 44H10.3196L5.57355 40.388V35.222H9.98356V38.078L11.7896 39.464H19.7696L21.2816 38.162V33.248L16.3256 29.342L21.2816 25.31V20.354L19.7696 19.01H11.7896L9.98356 20.396V23.252H5.57355V18.128L10.3196 14.516H21.3656L25.6916 18.212V27.536L23.5496 29.3L25.6916 30.98V40.346L21.3656 44ZM50.2025 44H29.4545V14.6H50.2025L54.4445 20.27V38.33L50.2025 44ZM49.9505 21.824L47.9345 19.094H33.9065V39.464H47.9345L49.9505 36.776V21.824Z" fill="black"/>
</svg>
